<svg width="16" height="16" viewBox="0 0 16 16" fill="none" xmlns="http://www.w3.org/2000/svg">
<path d="M3.05 2H10.5C11.4283 2 12.3185 2.36875 12.9749 3.02513C13.6313 3.6815 14 4.57174 14 5.5V12.95C14.5647 12.8347 15.0722 12.5279 15.4367 12.0815C15.8011 11.635 16.0001 11.0763 16 10.5V4C16 2.93913 15.5786 1.92172 14.8284 1.17157C14.0783 0.421427 13.0609 5.21142e-08 12 5.21142e-08H5.5C4.92367 -0.000117575 4.36501 0.198892 3.91855 0.563347C3.47209 0.927802 3.16527 1.43532 3.05 2ZM0 5.5C0 4.83696 0.263392 4.20107 0.732233 3.73223C1.20107 3.26339 1.83696 3 2.5 3H10.5C11.163 3 11.7989 3.26339 12.2678 3.73223C12.7366 4.20107 13 4.83696 13 5.5V13.5C13 14.163 12.7366 14.7989 12.2678 15.2678C11.7989 15.7366 11.163 16 10.5 16H9V13.5C9 13.1022 8.84196 12.7206 8.56066 12.4393C8.27936 12.158 7.89782 12 7.5 12H0V5.5ZM8 13.5V16H2.5C1.83696 16 1.20107 15.7366 0.732233 15.2678C0.263392 14.7989 0 14.163 0 13.5V13H7.5C7.63261 13 7.75979 13.0527 7.85355 13.1464C7.94732 13.2402 8 13.3674 8 13.5Z" fill="black"/>
</svg>
