<svg fill="none" height="15" viewBox="0 0 15 15" width="15" xmlns="http://www.w3.org/2000/svg">
    <path
        d="M4.6875 1.66825C4.43886 1.66825 4.2004 1.75603 4.02459 1.91227C3.84877 2.0685 3.75 2.28041 3.75 2.50136C3.75 2.72231 3.84877 2.93422 4.02459 3.09046C4.2004 3.24669 4.43886 3.33447 4.6875 3.33447C4.93614 3.33447 5.1746 3.24669 5.35041 3.09046C5.52623 2.93422 5.625 2.72231 5.625 2.50136C5.625 2.28041 5.52623 2.0685 5.35041 1.91227C5.1746 1.75603 4.93614 1.66825 4.6875 1.66825ZM2.03438 1.66825C2.22806 1.18044 2.58726 0.75803 3.06244 0.459242C3.53762 0.160453 4.10539 0 4.6875 0C5.26961 0 5.83738 0.160453 6.31256 0.459242C6.78774 0.75803 7.14694 1.18044 7.34062 1.66825H14.0625C14.3111 1.66825 14.5496 1.75603 14.7254 1.91227C14.9012 2.0685 15 2.28041 15 2.50136C15 2.72231 14.9012 2.93422 14.7254 3.09046C14.5496 3.24669 14.3111 3.33447 14.0625 3.33447H7.34062C7.14694 3.82228 6.78774 4.24469 6.31256 4.54348C5.83738 4.84227 5.26961 5.00272 4.6875 5.00272C4.10539 5.00272 3.53762 4.84227 3.06244 4.54348C2.58726 4.24469 2.22806 3.82228 2.03438 3.33447H0.9375C0.68886 3.33447 0.450403 3.24669 0.274588 3.09046C0.0987722 2.93422 0 2.72231 0 2.50136C0 2.28041 0.0987722 2.0685 0.274588 1.91227C0.450403 1.75603 0.68886 1.66825 0.9375 1.66825H2.03438ZM10.3125 6.66689C10.0639 6.66689 9.8254 6.75467 9.64959 6.9109C9.47377 7.06714 9.375 7.27905 9.375 7.5C9.375 7.72095 9.47377 7.93286 9.64959 8.08909C9.8254 8.24533 10.0639 8.33311 10.3125 8.33311C10.5611 8.33311 10.7996 8.24533 10.9754 8.08909C11.1512 7.93286 11.25 7.72095 11.25 7.5C11.25 7.27905 11.1512 7.06714 10.9754 6.9109C10.7996 6.75467 10.5611 6.66689 10.3125 6.66689ZM7.65938 6.66689C7.85306 6.17908 8.21226 5.75667 8.68744 5.45788C9.16262 5.15909 9.73039 4.99864 10.3125 4.99864C10.8946 4.99864 11.4624 5.15909 11.9376 5.45788C12.4127 5.75667 12.7719 6.17908 12.9656 6.66689H14.0625C14.3111 6.66689 14.5496 6.75467 14.7254 6.9109C14.9012 7.06714 15 7.27905 15 7.5C15 7.72095 14.9012 7.93286 14.7254 8.08909C14.5496 8.24533 14.3111 8.33311 14.0625 8.33311H12.9656C12.7719 8.82092 12.4127 9.24333 11.9376 9.54212C11.4624 9.84091 10.8946 10.0014 10.3125 10.0014C9.73039 10.0014 9.16262 9.84091 8.68744 9.54212C8.21226 9.24333 7.85306 8.82092 7.65938 8.33311H0.9375C0.68886 8.33311 0.450403 8.24533 0.274588 8.08909C0.0987722 7.93286 0 7.72095 0 7.5C0 7.27905 0.0987722 7.06714 0.274588 6.9109C0.450403 6.75467 0.68886 6.66689 0.9375 6.66689H7.65938ZM4.6875 11.6655C4.43886 11.6655 4.2004 11.7533 4.02459 11.9095C3.84877 12.0658 3.75 12.2777 3.75 12.4986C3.75 12.7196 3.84877 12.9315 4.02459 13.0877C4.2004 13.244 4.43886 13.3317 4.6875 13.3317C4.93614 13.3317 5.1746 13.244 5.35041 13.0877C5.52623 12.9315 5.625 12.7196 5.625 12.4986C5.625 12.2777 5.52623 12.0658 5.35041 11.9095C5.1746 11.7533 4.93614 11.6655 4.6875 11.6655ZM2.03438 11.6655C2.22806 11.1777 2.58726 10.7553 3.06244 10.4565C3.53762 10.1577 4.10539 9.99728 4.6875 9.99728C5.26961 9.99728 5.83738 10.1577 6.31256 10.4565C6.78774 10.7553 7.14694 11.1777 7.34062 11.6655H14.0625C14.3111 11.6655 14.5496 11.7533 14.7254 11.9095C14.9012 12.0658 15 12.2777 15 12.4986C15 12.7196 14.9012 12.9315 14.7254 13.0877C14.5496 13.244 14.3111 13.3317 14.0625 13.3317H7.34062C7.14694 13.8196 6.78774 14.242 6.31256 14.5408C5.83738 14.8395 5.26961 15 4.6875 15C4.10539 15 3.53762 14.8395 3.06244 14.5408C2.58726 14.242 2.22806 13.8196 2.03438 13.3317H0.9375C0.68886 13.3317 0.450403 13.244 0.274588 13.0877C0.0987722 12.9315 0 12.7196 0 12.4986C0 12.2777 0.0987722 12.0658 0.274588 11.9095C0.450403 11.7533 0.68886 11.6655 0.9375 11.6655H2.03438Z"
        fill="#858585" />
</svg>
