<svg fill="none" height="17" viewBox="0 0 15 17" width="15" xmlns="http://www.w3.org/2000/svg">
    <path
        d="M1.40035e-08 1.12351C1.40035e-08 0.825537 0.131696 0.539768 0.366117 0.329069C0.600537 0.11837 0.918479 0 1.25 0H13.75C14.0815 0 14.3995 0.11837 14.6339 0.329069C14.8683 0.539768 15 0.825537 15 1.12351V15.8763C15 16.0797 14.9386 16.2793 14.8223 16.4538C14.7061 16.6283 14.5392 16.7712 14.3397 16.8671C14.1402 16.9631 13.9154 17.0085 13.6894 16.9987C13.4633 16.9888 13.2445 16.924 13.0562 16.8111L8.19375 13.8978C7.98834 13.7746 7.74693 13.7089 7.5 13.7089C7.25307 13.7089 7.01166 13.7746 6.80625 13.8978L1.94375 16.8111C1.7555 16.924 1.53668 16.9888 1.31065 16.9987C1.08461 17.0085 0.859831 16.9631 0.660294 16.8671C0.460756 16.7712 0.293945 16.6283 0.177657 16.4538C0.0613688 16.2793 -3.38547e-05 16.0797 1.40035e-08 15.8763V1.12351Z"
        fill="white" />
</svg>
