<svg fill="none" height="18" viewBox="0 0 18 18" width="18" xmlns="http://www.w3.org/2000/svg">
    <path
        d="M3 7.19202C2.99945 6.06922 3.38723 4.97414 4.10945 4.05895C4.83167 3.14376 5.85247 2.45391 7.03 2.08525C6.9844 1.82794 7.00132 1.56478 7.0796 1.31394C7.15788 1.06309 7.29565 0.83052 7.48341 0.632281C7.67117 0.434042 7.90444 0.274851 8.16714 0.165691C8.42983 0.0565303 8.71569 0 9.005 0C9.29431 0 9.58017 0.0565303 9.84286 0.165691C10.1056 0.274851 10.3388 0.434042 10.5266 0.632281C10.7143 0.83052 10.8521 1.06309 10.9304 1.31394C11.0087 1.56478 11.0256 1.82794 10.98 2.08525C12.1557 2.45542 13.1743 3.14592 13.8946 4.06098C14.615 4.97604 15.0013 6.07031 15 7.19202V12.596L18 14.3973V15.298H0V14.3973L3 12.596V7.19202ZM11 16.1987C11 16.6764 10.7893 17.1346 10.4142 17.4724C10.0391 17.8102 9.53043 18 9 18C8.46957 18 7.96086 17.8102 7.58579 17.4724C7.21071 17.1346 7 16.6764 7 16.1987H11Z"
        fill="white" />
</svg>
