<svg fill="none" height="13" viewBox="0 0 13 13" width="13" xmlns="http://www.w3.org/2000/svg">
    <path
        d="M6.5 13C5.60083 13 4.75583 12.8293 3.965 12.4878C3.17417 12.1468 2.48625 11.6838 1.90125 11.0988C1.31625 10.5138 0.853233 9.82583 0.5122 9.035C0.170733 8.24417 0 7.39917 0 6.5C0 5.60083 0.170733 4.75583 0.5122 3.965C0.853233 3.17417 1.31625 2.48625 1.90125 1.90125C2.48625 1.31625 3.17417 0.853017 3.965 0.51155C4.75583 0.170517 5.60083 0 6.5 0H7.15V5.37875C7.345 5.49792 7.50208 5.65218 7.62125 5.84155C7.74042 6.03135 7.8 6.25083 7.8 6.5C7.8 6.8575 7.67282 7.16343 7.41845 7.4178C7.16365 7.6726 6.8575 7.8 6.5 7.8C6.1425 7.8 5.83657 7.6726 5.5822 7.4178C5.3274 7.16343 5.2 6.8575 5.2 6.5C5.2 6.25083 5.25958 6.02875 5.37875 5.83375C5.49792 5.63875 5.655 5.48708 5.85 5.37875V3.98125C5.28667 4.13292 4.82083 4.43885 4.4525 4.89905C4.08417 5.35968 3.9 5.89333 3.9 6.5C3.9 7.215 4.15458 7.82708 4.66375 8.33625C5.17292 8.84542 5.785 9.1 6.5 9.1C7.215 9.1 7.82708 8.84542 8.33625 8.33625C8.84542 7.82708 9.1 7.215 9.1 6.5C9.1 6.11 9.02135 5.74968 8.86405 5.41905C8.70718 5.08885 8.49333 4.79917 8.2225 4.55L9.14875 3.62375C9.52792 3.98125 9.83125 4.40635 10.0588 4.89905C10.2863 5.39218 10.4 5.92583 10.4 6.5C10.4 7.58333 10.0208 8.50417 9.2625 9.2625C8.50417 10.0208 7.58333 10.4 6.5 10.4C5.41667 10.4 4.49583 10.0208 3.7375 9.2625C2.97917 8.50417 2.6 7.58333 2.6 6.5C2.6 5.525 2.90875 4.6774 3.52625 3.9572C4.14375 3.23657 4.91833 2.80042 5.85 2.64875V1.3325C4.56083 1.495 3.48032 2.06375 2.60845 3.03875C1.73615 4.01375 1.3 5.1675 1.3 6.5C1.3 7.95167 1.80375 9.18125 2.81125 10.1887C3.81875 11.1962 5.04833 11.7 6.5 11.7C7.95167 11.7 9.18125 11.1962 10.1887 10.1887C11.1962 9.18125 11.7 7.95167 11.7 6.5C11.7 5.7525 11.5538 5.05375 11.2613 4.40375C10.9688 3.75375 10.5679 3.19042 10.0588 2.71375L10.985 1.7875C11.6025 2.38333 12.0928 3.08468 12.4559 3.89155C12.8186 4.69885 13 5.56833 13 6.5C13 7.39917 12.8293 8.24417 12.4878 9.035C12.1468 9.82583 11.6838 10.5138 11.0988 11.0988C10.5138 11.6838 9.82583 12.1468 9.035 12.4878C8.24417 12.8293 7.39917 13 6.5 13Z"
        fill="#F0C119" />
</svg>
