<svg fill="none" height="68" viewBox="0 0 80 68" width="80" xmlns="http://www.w3.org/2000/svg">
    <g clip-path="url(#clip0_7647_3426)">
        <path
            d="M82.2764 68.0001H0C0.901531 64.9369 2.56642 62.3387 4.91335 61.568C8.34663 60.4417 11.9799 63.538 15.4055 62.3739C17.3517 61.7132 18.8839 59.7872 20.4939 58.1885C26.5679 52.1552 34.8916 50.372 42.079 53.5655C45.8359 55.2338 49.2595 58.1515 53.1082 59.3924C58.0847 60.9969 63.2891 59.6663 68.4067 59.447C73.3908 59.2329 80.5327 61.9389 82.2764 68.0001Z"
            fill="#F3F5FD" />
        <path d="M48.9228 50.1162H38.521V65.803H48.9228V50.1162Z" fill="#3BB35B" />
        <path
            d="M69.0383 0H18.4055C17.2968 0 16.3979 1.19749 16.3979 2.67466V55.1142C16.3979 56.5914 17.2968 57.7888 18.4055 57.7888H69.0383C70.1471 57.7888 71.0459 56.5914 71.0459 55.1142V2.67466C71.0459 1.19749 70.1471 0 69.0383 0Z"
            fill="#3BB35B" />
        <path
            d="M68.9135 1.82422H18.5302C18.04 1.82422 17.6426 2.35365 17.6426 3.00673V48.8807C17.6426 49.5337 18.04 50.0632 18.5302 50.0632H68.9135C69.4037 50.0632 69.8011 49.5337 69.8011 48.8807V3.00673C69.8011 2.35365 69.4037 1.82422 68.9135 1.82422Z"
            fill="white" />
        <path
            d="M52.2071 64.397H35.2367C34.4899 64.397 33.8845 65.2035 33.8845 66.1985C33.8845 67.1934 34.4899 67.9999 35.2367 67.9999H52.2071C52.9539 67.9999 53.5593 67.1934 53.5593 66.1985C53.5593 65.2035 52.9539 64.397 52.2071 64.397Z"
            fill="#3BB35B" />
        <path d="M48.3846 37.5911H39.0593V40.7272H48.3846V37.5911Z" fill="#3BB35B" />
        <path
            d="M47.4063 9.06614V10.4309C47.4063 10.663 47.337 10.8856 47.2138 11.0498C47.0906 11.2139 46.9236 11.3061 46.7493 11.3061H33.5656C33.3914 11.3061 33.2243 11.3983 33.1011 11.5625C32.9779 11.7266 32.9087 11.9492 32.9087 12.1813V32.1431C32.9087 32.3752 32.9779 32.5978 33.1011 32.762C33.2243 32.9261 33.3914 33.0183 33.5656 33.0183H53.8783C54.0525 33.0183 54.2196 32.9261 54.3428 32.762C54.466 32.5978 54.5352 32.3752 54.5352 32.1431V9.06614C54.5352 8.83401 54.466 8.6114 54.3428 8.44726C54.2196 8.28313 54.0525 8.19092 53.8783 8.19092H48.0635C47.9772 8.19087 47.8917 8.21347 47.812 8.25743C47.7323 8.30139 47.6598 8.36585 47.5988 8.44713C47.5377 8.5284 47.4893 8.6249 47.4563 8.73111C47.4233 8.83733 47.4063 8.95117 47.4063 9.06614Z"
            fill="#3BB35B" />
        <path d="M44.0238 17.2539H43.4202V27.0709H44.0238V17.2539Z" fill="white" />
        <path d="M47.4062 21.7605H40.0376V22.5647H47.4062V21.7605Z" fill="white" />
        <path
            d="M20.8794 66.9479L19.3572 66.7066C19.4257 65.9392 19.5032 65.0171 19.5085 64.866C19.5085 64.8757 19.5085 64.8836 19.5085 64.8898H21.0413C21.041 64.9509 21.041 65.1374 20.8794 66.9479Z"
            fill="#E98862" />
        <path
            d="M14.7716 67.1921L13.2388 67.1854C13.2388 67.1854 13.2439 65.0767 13.2439 64.8904H14.7767C14.7767 65.0774 14.7716 67.1921 14.7716 67.1921Z"
            fill="#E98862" />
        <path
            d="M21.4448 66.2419C21.318 61.9621 21.3103 57.4672 21.2706 53.1761C20.7434 48.5479 20.4663 43.4716 19.8155 38.8761L19.7961 38.8838L19.739 38.3655L14.1859 37.9089C14.1859 37.9089 14.0411 41.534 13.9906 42.7421C13.72 49.2175 13.1707 59.6255 12.8438 66.1871L15.5348 66.49C16.0155 60.0368 16.6532 49.7564 17.0875 43.396C17.5642 46.6369 18.1597 50.2866 18.5828 53.5659C18.6755 57.7551 18.7529 62.1207 18.7445 66.303L21.4448 66.2419Z"
            fill="#262626" />
        <path
            d="M16.635 67.9819C16.6763 67.9817 16.717 67.9701 16.7547 67.9479C16.7924 67.9257 16.8263 67.8934 16.8542 67.853C16.8821 67.8126 16.9035 67.765 16.917 67.7131C16.9305 67.6612 16.9358 67.6062 16.9326 67.5514C16.9282 67.4755 16.9075 67.4029 16.8732 67.3421C16.8388 67.2813 16.7921 67.2349 16.7385 67.2082L14.9544 66.4121C14.9198 66.3968 14.8832 66.3917 14.847 66.3971C14.8108 66.4024 14.776 66.4181 14.7447 66.4431C14.4995 66.6699 14.2061 66.7858 13.9077 66.7737C13.6753 66.7517 13.4522 66.6431 13.2639 66.4604C13.2473 66.4423 13.2272 66.4309 13.206 66.4274C13.1847 66.4239 13.1632 66.4286 13.1438 66.4408C13.1245 66.4531 13.1082 66.4724 13.0967 66.4965C13.0853 66.5206 13.0793 66.5486 13.0793 66.5771V67.7394C13.0793 67.7737 13.0844 67.8076 13.0943 67.8393C13.1042 67.871 13.1186 67.8997 13.1369 67.9239C13.1551 67.9481 13.1767 67.9673 13.2006 67.9803C13.2244 67.9933 13.2499 68 13.2756 67.9998L16.635 67.9819Z"
            fill="#C1D8ED" />
        <path
            d="M22.7468 67.9819C22.7881 67.9817 22.8288 67.9701 22.8665 67.9479C22.9042 67.9257 22.9381 67.8934 22.966 67.853C22.9939 67.8126 23.0153 67.765 23.0288 67.7131C23.0423 67.6612 23.0476 67.6062 23.0444 67.5514C23.0399 67.4755 23.0193 67.4029 22.985 67.3421C22.9506 67.2813 22.9039 67.2349 22.8504 67.2082L21.0662 66.4121C21.0316 66.3968 20.995 66.3917 20.9588 66.3971C20.9227 66.4024 20.8878 66.4181 20.8566 66.4431C20.6113 66.6699 20.3179 66.7858 20.0195 66.7737C19.7871 66.7517 19.564 66.6431 19.3756 66.4604C19.3591 66.4423 19.339 66.4309 19.3177 66.4274C19.2965 66.4239 19.2749 66.4286 19.2556 66.4408C19.2363 66.453 19.2199 66.4724 19.2085 66.4965C19.1971 66.5206 19.1911 66.5486 19.1912 66.5771V67.7394C19.1912 67.7737 19.1962 67.8076 19.2061 67.8393C19.216 67.871 19.2304 67.8997 19.2487 67.9239C19.2669 67.9481 19.2886 67.9673 19.3124 67.9803C19.3362 67.9933 19.3617 68 19.3874 67.9998L22.7468 67.9819Z"
            fill="#C1D8ED" />
        <path
            d="M22.4605 31.0762L22.4944 31.0956L22.0698 31.1869L22.4866 32.2469C22.4866 32.2469 24.0321 32.7288 24.7552 31.6449C24.7736 31.6172 24.7853 31.5829 24.7888 31.5462C24.7923 31.5096 24.7875 31.4724 24.7748 31.4395C24.7622 31.4067 24.7425 31.3796 24.7181 31.3619C24.6938 31.3443 24.666 31.3368 24.6384 31.3405C24.2216 31.3968 23.4785 31.4639 23.1438 31.288C23.291 31.1917 23.4862 31.0443 23.4556 30.9562C23.3749 30.7246 22.6752 31.03 22.4605 31.0762Z"
            fill="#E98862" />
        <path d="M21.0432 31.6692L21.1804 31.783H21.0432V31.6692Z" fill="#FD5D76" />
        <path d="M30.1681 31.7492H22.0698V17.8206H28.4446L30.1681 20.2471V31.7492Z"
            fill="#C1D8ED" />
        <path d="M28.4446 17.8206V20.2471H30.1681L28.4446 17.8206Z" fill="#DEE8F5" />
        <path d="M29.2495 23.8232H22.9885V24.2871H29.2495V23.8232Z" fill="#DEE8F5" />
        <path d="M29.2495 25.3357H22.9885V25.7996H29.2495V25.3357Z" fill="#DEE8F5" />
        <path d="M29.2495 26.8484H22.9885V27.3123H29.2495V26.8484Z" fill="#DEE8F5" />
        <path d="M29.2495 28.3611H22.9885V28.8249H29.2495V28.3611Z" fill="#DEE8F5" />
        <path d="M29.2495 29.8735H22.9885V30.3374H29.2495V29.8735Z" fill="#DEE8F5" />
        <path
            d="M27.041 31.0762L27.075 31.0956L26.6504 31.1869L27.0672 32.2469C27.0672 32.2469 28.6127 32.7288 29.3358 31.6449C29.3542 31.6172 29.3659 31.5829 29.3694 31.5462C29.3729 31.5096 29.368 31.4724 29.3554 31.4395C29.3428 31.4067 29.323 31.3796 29.2987 31.3619C29.2743 31.3443 29.2466 31.3368 29.219 31.3405C28.8022 31.3968 28.0591 31.4639 27.7244 31.288C27.8716 31.1917 28.0668 31.0443 28.0361 30.9562C27.9554 30.7246 27.2555 31.03 27.041 31.0762Z"
            fill="#E98862" />
        <path
            d="M15.8752 28.0265C15.8752 28.0265 16.4396 27.6278 16.3136 25.58L17.4798 25.292C17.4798 25.292 17.3484 27.1278 17.9387 27.7107L15.8752 28.0265Z"
            fill="#E98862" />
        <path
            d="M15.6521 24.786C15.7328 25.4073 15.9872 25.9956 16.3986 26.1961C16.8869 26.4345 17.2483 26.4511 17.8115 26.4511C18.5798 26.4511 18.5544 25.3837 18.576 24.308C18.5979 23.2285 18.5332 22.0695 18.2296 21.6932C17.6237 20.942 15.8447 21.4177 15.6283 22.6741C15.5164 23.3234 15.5752 24.195 15.6521 24.786Z"
            fill="#E98862" />
        <path
            d="M17.7241 26.0943C17.6073 26.3666 16.536 26.3532 16.257 26.1332C15.9826 25.9166 15.3657 25.5411 15.1556 23.7718C14.9672 22.1867 15.7013 21.5326 16.2866 21.2993C16.7913 21.0981 17.969 21.0568 18.5216 21.5006C18.9979 21.8831 18.5216 22.7727 18.5216 22.7727C18.4322 22.801 18.3408 22.8163 18.2489 22.8182C17.9195 22.8182 17.8522 23.1039 17.8638 23.2753C17.9347 24.3139 17.8665 25.762 17.7241 26.0943Z"
            fill="#0F1011" />
        <path
            d="M18.3856 24.5113C18.3913 24.5901 18.3852 24.6697 18.3676 24.7453C18.35 24.8209 18.3213 24.8911 18.2831 24.9518C18.245 25.0125 18.1982 25.0625 18.1454 25.0989C18.0927 25.1353 18.035 25.1574 17.9758 25.1638C17.9166 25.1702 17.857 25.1609 17.8005 25.1364C17.744 25.1119 17.6917 25.0727 17.6467 25.021C17.6016 24.9694 17.5648 24.9063 17.5382 24.8355C17.5116 24.7647 17.4959 24.6876 17.4919 24.6086C17.4861 24.5301 17.4921 24.4509 17.5097 24.3757C17.5274 24.3004 17.5562 24.2307 17.5944 24.1706C17.6327 24.1105 17.6797 24.0612 17.7325 24.0258C17.7854 23.9904 17.8431 23.9695 17.9021 23.9644C18.2217 23.9509 18.3654 24.1826 18.3856 24.5113Z"
            fill="#E98862" />
        <path
            d="M26.8202 30.835L22.9548 32.5025L22.6835 31.7828H21.794L19.8597 28.4424C19.6402 27.8757 19.2268 27.5079 18.4921 27.466C18.199 27.4493 16.769 27.4465 15.722 27.4465C15.0187 27.4465 14.4412 27.734 14.1077 28.1783C12.9581 29.71 14.3692 32.3201 14.3692 34.3632C14.3692 36.4062 13.6758 37.3212 13.7269 38.3697C13.8072 40.0176 19.8166 39.6282 20.1228 38.6922C20.4042 37.8305 19.9249 37.2627 19.8386 34.9049L21.1014 34.0595L21.4413 34.6465C21.5415 34.8195 21.6793 34.947 21.836 35.0117C21.9927 35.0763 22.1605 35.0749 22.3165 35.0075L27.3102 32.8532L26.8202 30.835ZM19.9106 32.4827C19.9226 32.344 19.9349 32.205 19.9475 32.0657L20.1112 32.3483L19.9106 32.4827Z"
            fill="#2BA700" />
        <path
            d="M10.795 60.0527C10.43 59.8935 10.0554 60.0722 9.69701 60.4353C10.1691 58.8473 10.3639 57.4129 9.55687 57.3482C8.99227 57.3031 8.55964 57.8801 8.23103 58.7007C8.11556 57.2581 7.81731 56.182 7.14943 56.5388C6.41614 56.9304 6.30454 58.2726 6.41578 59.6771C6.09279 58.9598 5.7449 58.5597 5.42914 58.9805C4.48659 60.2362 6.80009 63.7747 6.80009 63.7747H7.37468L7.70257 64.2491C7.63622 64.436 7.59987 64.5474 7.59987 64.5474L8.01636 65.6766C8.01636 65.6766 12.3096 60.7132 10.795 60.0527Z"
            fill="#5FA1D5" />
        <path d="M9.76463 68.2058H6.51281L5.96851 63.1482H10.309L9.76463 68.2058Z" fill="#C1D8ED" />
        <path
            d="M73.7365 67.8578C75.2152 67.4278 76.6627 66.8105 78.0762 64.781C78.3663 64.3652 78.6487 63.8222 78.5398 63.2724C78.4579 62.8586 78.1627 62.5658 77.8502 62.4638C77.7337 62.4275 77.6145 62.4094 77.4949 62.41C77.4942 62.41 77.4936 62.41 77.4935 62.41C77.3093 62.4141 77.1258 62.4406 76.9452 62.4893L76.8937 62.5026C76.0328 62.7247 75.2012 63.1149 74.4257 63.6604C74.3555 63.7095 74.2748 63.7255 74.1969 63.7057C74.119 63.6859 74.0484 63.6315 73.9967 63.5515C73.9449 63.4714 73.915 63.3703 73.9118 63.2647C73.9087 63.1592 73.9325 63.0553 73.9793 62.97C74.0648 62.8154 74.1618 62.6729 74.269 62.5445C74.4267 62.3594 74.5972 62.1943 74.778 62.0515C75.0189 61.857 75.2729 61.6887 75.5225 61.5145C76.4495 60.8693 77.3363 60.1261 78.1742 59.2922C78.7727 58.6964 79.3629 58.0267 79.6868 57.1298C79.8355 56.7173 79.9224 56.2322 79.8043 55.8024C79.6092 55.0965 78.9449 54.8294 78.3826 54.9069C77.3972 55.043 76.5618 55.9015 75.8143 56.7666C75.1938 57.4856 74.5004 58.2808 73.6788 58.235C73.5382 58.2365 73.4004 58.1829 73.2824 58.0811C73.0611 57.8661 73.0292 57.4228 73.1347 57.0859C73.2402 56.7489 73.4506 56.494 73.6536 56.2496C74.833 54.8298 75.9994 53.3451 76.8226 51.5339C77.6458 49.7227 78.1 47.5249 77.7423 45.461C77.6373 44.858 77.4594 44.2617 77.1519 43.7969C76.8445 43.332 76.3921 43.0108 75.9271 43.0399C75.2936 43.0782 74.7765 43.7287 74.4122 44.4194C73.1605 46.7899 73.0303 49.8548 72.5388 52.678C72.4012 53.4683 72.2232 54.2747 71.8235 54.8925C71.7864 54.9521 71.7402 55.0003 71.6879 55.0341C71.3789 55.2275 71.1442 54.7393 71.0587 54.3381C70.7213 52.7506 70.7256 50.9798 70.0263 49.6178C69.7595 49.0994 69.3635 48.6462 68.8933 48.5968C68.3187 48.5364 67.786 49.1191 67.5712 49.8318C67.3565 50.5445 67.4056 51.3507 67.5382 52.0976C67.7847 53.4831 68.3039 54.7616 68.9391 55.9062C69.2741 56.5104 69.6569 57.126 69.7211 57.8715C69.7391 58.1245 69.7084 58.3794 69.6317 58.612C69.5551 58.8447 69.4351 59.0474 69.2831 59.2009C69.2122 59.2699 69.1317 59.3192 69.0462 59.3459C68.9607 59.3726 68.8721 59.3762 68.7856 59.3565C68.5986 59.3119 68.4364 59.1644 68.2801 59.0211C68.2144 58.9609 68.1487 58.8999 68.0825 58.8399C67.8215 58.6004 67.5605 58.3606 67.2994 58.1203C66.6358 57.5102 65.8281 56.8718 65.0718 57.2451C64.6855 57.4361 64.4134 57.8675 64.2651 58.3812C64.1321 58.8476 64.0995 59.3542 64.171 59.8439C64.3235 60.863 65.5098 63.7862 66.0266 64.5642C66.629 65.4729 68.6769 69.3291 73.7365 67.8578Z"
            fill="#5FA1D5" />
    </g>
    <defs>
        <clipPath id="clip0_7647_3426">
            <rect fill="white" height="68" width="80" />
        </clipPath>
    </defs>
</svg>
