<svg fill="none" height="11" viewBox="0 0 7 11" width="7" xmlns="http://www.w3.org/2000/svg">
    <path
        d="M3.5 2.75C4.32843 2.75 5 2.13439 5 1.375C5 0.615608 4.32843 0 3.5 0C2.67157 0 2 0.615608 2 1.375C2 2.13439 2.67157 2.75 3.5 2.75Z"
        fill="black" />
    <path
        d="M3.5 6.875C4.32843 6.875 5 6.25939 5 5.5C5 4.74061 4.32843 4.125 3.5 4.125C2.67157 4.125 2 4.74061 2 5.5C2 6.25939 2.67157 6.875 3.5 6.875Z"
        fill="black" />
    <path
        d="M3.5 11C4.32843 11 5 10.3844 5 9.625C5 8.86561 4.32843 8.25 3.5 8.25C2.67157 8.25 2 8.86561 2 9.625C2 10.3844 2.67157 11 3.5 11Z"
        fill="black" />
</svg>
