<?xml version="1.0" encoding="utf-8"?>
<!-- Generator: Adobe Illustrator 16.0.0, SVG Export Plug-In . SVG Version: 6.00 Build 0)  -->
<!DOCTYPE svg PUBLIC "-//W3C//DTD SVG 1.1//EN" "http://www.w3.org/Graphics/SVG/1.1/DTD/svg11.dtd">
<svg version="1.1" id="Layer_1" focusable="false" xmlns="http://www.w3.org/2000/svg" xmlns:xlink="http://www.w3.org/1999/xlink"
	 x="0px" y="0px" width="100px" height="100px" viewBox="0 0 100 100" enable-background="new 0 0 100 100" xml:space="preserve">
<g>
	<path fill-rule="evenodd" clip-rule="evenodd" d="M42.937,99.918c0-1.878,0-3.667,0-5.456c0-3.737-0.013-7.476,0.022-11.212
		c0.003-0.333,0.236-0.831,0.506-0.967c3.566-1.794,5.619-4.719,6.484-8.541c0.198-0.876,0.59-1.573,1.247-2.207
		c3.359-3.231,4.703-7.147,3.598-11.718c-0.4-1.648-0.383-3.151,0.014-4.797c1.039-4.318-0.141-8.106-3.283-11.221
		c-0.891-0.882-1.446-1.821-1.743-3.029c-1.152-4.681-4.112-7.642-8.767-8.86c-1.175-0.307-2.062-0.88-2.909-1.762
		c-3.094-3.221-6.86-4.408-11.258-3.377c-0.667,0.156-1.33,0.334-1.997,0.493c-0.082,0.02-0.175-0.012-0.362-0.029
		c0-0.412,0-0.823,0-1.235c0.003-6.369,0.007-12.737,0.01-19.106c0.001-1.741,0.542-3.207,2.021-4.265
		c0.909-0.651,1.925-0.771,2.978-0.772c8.492-0.006,16.983-0.002,25.474-0.002c3.797,0,7.596-0.001,11.393-0.001
		c0.322,0,0.645,0,1.1,0c0,0.435,0,0.782,0,1.128c0,8.103,0.021,16.206-0.012,24.309c-0.01,2.137,0.682,3.842,2.68,4.743
		c0.756,0.339,1.676,0.429,2.521,0.432c8.072,0.031,16.146,0.018,24.219,0.018c0.354,0,0.709,0,1.16,0
		c0.02,0.368,0.049,0.682,0.049,0.996c0.002,20.511,0.004,41.023,0,61.534c0,2.573-1.15,4.262-3.289,4.81
		c-0.453,0.116-0.943,0.128-1.418,0.128c-16.533,0.006-33.068,0.005-49.604,0.004C43.536,99.955,43.301,99.935,42.937,99.918z"/>
	<path fill-rule="evenodd" clip-rule="evenodd" d="M12.25,99.959c0-0.465,0-0.817,0-1.171c0.002-6.579-0.016-13.158,0.028-19.736
		c0.006-0.871-0.336-1.205-1.091-1.395c-0.895-0.225-1.794-0.465-2.655-0.793c-1.68-0.639-2.683-1.93-3.24-3.599
		c-0.122-0.368-0.258-0.738-0.319-1.118c-0.321-1.978-1.3-3.56-2.807-4.854c-2.163-1.859-2.593-4.227-1.784-6.833
		c0.617-1.986,0.591-3.899-0.014-5.876c-0.801-2.619-0.332-4.989,1.79-6.848c1.498-1.314,2.42-2.891,2.801-4.853
		c0.563-2.902,2.293-4.729,5.247-5.285c1.901-0.358,3.385-1.348,4.69-2.759c0.691-0.749,1.578-1.368,2.478-1.859
		c1.108-0.605,2.357-0.672,3.568-0.241c2.361,0.84,4.688,0.877,7.083,0.055c2.156-0.742,4.089-0.143,5.61,1.527
		c1.64,1.8,3.551,3.028,5.968,3.535c2.297,0.481,3.745,2.033,4.224,4.273c0.522,2.44,1.665,4.402,3.479,6.098
		c1.717,1.605,2.125,3.657,1.496,5.924c-0.253,0.918-0.626,1.856-0.613,2.78c0.016,1.231,0.254,2.485,0.576,3.682
		c0.677,2.516,0.197,4.673-1.734,6.445c-1.617,1.484-2.62,3.256-3.059,5.433c-0.535,2.645-2.205,4.26-4.885,4.865
		c-2.317,0.524-2.305,0.577-2.305,2.951c0.001,6.16,0.001,12.321,0.002,18.48c0,0.352,0,0.701,0,1.212
		c-0.44-0.202-0.754-0.335-1.06-0.488c-3.438-1.728-6.883-3.442-10.304-5.204c-0.616-0.317-1.085-0.351-1.721-0.026
		c-3.505,1.79-7.037,3.525-10.561,5.277C12.88,99.687,12.612,99.796,12.25,99.959z M36.745,57.023
		c0.044-6.531-5.402-12.092-11.826-12.206c-7.2-0.127-12.634,5.45-12.655,12.387c-0.02,6.545,5.478,12.053,12.115,12.104
		C31.294,69.364,36.697,63.995,36.745,57.023z"/>
	<path fill-rule="evenodd" clip-rule="evenodd" d="M98,26.359c-8.131,0-16.195,0-24.324,0c0-8.152,0-16.268,0-24.426
		c1.887-0.272,3.439,0.257,4.785,1.62C83.482,8.638,88.537,13.69,93.58,18.754c0.992,0.996,1.963,2.016,2.992,2.969
		C97.934,22.981,98.297,24.515,98,26.359z"/>
</g>
</svg>
