<svg xmlns="http://www.w3.org/2000/svg" xmlns:xlink="http://www.w3.org/1999/xlink" width="225.96" height="216.175" viewBox="0 0 225.96 216.175">
  <defs>
    <linearGradient id="linear-gradient" x1="0.5" y1="0.584" x2="0.5" y2="0.078" gradientUnits="objectBoundingBox">
      <stop offset="0" stop-color="#fff"/>
      <stop offset="0.66" stop-color="#f1f2f6"/>
    </linearGradient>
    <radialGradient id="radial-gradient" cx="0.954" cy="0.944" r="1.36" gradientUnits="objectBoundingBox">
      <stop offset="0" stop-color="#9faec8"/>
      <stop offset="1" stop-color="#e3e7ef"/>
    </radialGradient>
    <radialGradient id="radial-gradient-2" cx="1.32" cy="0.993" r="1.601" xlink:href="#radial-gradient"/>
    <radialGradient id="radial-gradient-3" cx="0.495" cy="-0.47" r="0.474" xlink:href="#radial-gradient"/>
    <linearGradient id="linear-gradient-2" x1="0" y1="0.5" x2="1" y2="0.5" xlink:href="#linear-gradient"/>
    <linearGradient id="linear-gradient-3" y1="0.5" x2="1" y2="0.5" gradientUnits="objectBoundingBox">
      <stop offset="0" stop-color="#b1f7a1"/>
      <stop offset="1" stop-color="#7bbb72"/>
    </linearGradient>
    <linearGradient id="linear-gradient-7" x1="-0.654" y1="0.5" y2="0.5" xlink:href="#linear-gradient-3"/>
  </defs>
  <g id="Filter" transform="translate(-0.81 -0.98)">
    <circle id="Oval" cx="108.07" cy="108.07" r="108.07" transform="translate(0.81 0.98)" fill="url(#linear-gradient)"/>
    <path id="Path" d="M69.4,3.01a8,8,0,0,0-8,8v5.9A5.1,5.1,0,0,1,56.31,22H49.92V11a11,11,0,1,0-22,0V51.14H21.09A5.1,5.1,0,0,1,16,46.05V37.5a8,8,0,0,0-16,0v8.55A21.11,21.11,0,0,0,21.09,67.14h6.83V93.8a11,11,0,1,0,22,0V38h6.39A21.11,21.11,0,0,0,77.4,16.91v-5.9A8,8,0,0,0,69.4,3.01Z" transform="translate(28 56.2)" fill="url(#radial-gradient)"/>
    <path id="Path-2" data-name="Path" d="M4.62,1.73A4.62,4.62,0,0,1,9.24,6.35V9.76a2.94,2.94,0,0,0,2.94,2.93h3.68V6.35a6.35,6.35,0,0,1,12.7,0V29.52H32.5a2.94,2.94,0,0,0,2.93-2.94V21.64a4.62,4.62,0,1,1,9.24,0v4.94A12.18,12.18,0,0,1,32.5,38.75H28.56V54.14a6.35,6.35,0,0,1-12.7,0V21.93H12.18A12.19,12.19,0,0,1,0,9.76V6.35A4.62,4.62,0,0,1,4.62,1.73Z" transform="translate(137.38 102.13)" fill="url(#radial-gradient-2)"/>
    <path id="Path-3" data-name="Path" d="M74.177,17.873a3.19,3.19,0,0,1-3.17,3.18H3.177a3.17,3.17,0,0,1-2.24-5.42,3.13,3.13,0,0,1,2.24-.93h3.23a8.27,8.27,0,0,1,13.46-2.56,11.46,11.46,0,0,1,13.24-5.17,13.13,13.13,0,0,1,24.25,2.65A8.26,8.26,0,0,1,69,14.7h2A3.18,3.18,0,0,1,74.177,17.873Z" transform="translate(152.593 50.127)" fill="#fff"/>
    <path id="Path-4" data-name="Path" d="M84.535,20.328a3.61,3.61,0,0,1-1.07,2.56,3.55,3.55,0,0,1-2.54,1.06H3.615a3.61,3.61,0,0,1-2.55-6.17,3.57,3.57,0,0,1,2.55-1.06h3.66a9.42,9.42,0,0,1,15.34-2.92,13.1,13.1,0,0,1,15.08-5.9,15,15,0,0,1,27.64,3A9.44,9.44,0,0,1,78.6,16.7h2.33a3.62,3.62,0,0,1,3.6,3.63Z" transform="translate(17.725 7.882)" fill="#fff"/>
    <path id="Path-5" data-name="Path" d="M94.23,0A327.5,327.5,0,0,0,0,13.79,108.08,108.08,0,0,0,94.235,68.945,108.08,108.08,0,0,0,188.47,13.79,327.57,327.57,0,0,0,94.23,0Z" transform="translate(14.65 148.21)" fill="url(#radial-gradient-3)"/>
    <ellipse id="Oval-2" data-name="Oval" cx="58.38" cy="4.19" rx="58.38" ry="4.19" transform="translate(50.5 167.07)" fill="#4d4d4d" opacity="0.09"/>
    <circle id="Oval-3" data-name="Oval" cx="39.46" cy="39.46" r="39.46" transform="translate(69.13 64.25)" fill="url(#linear-gradient-2)"/>
    <circle id="Oval-4" data-name="Oval" cx="3.35" cy="3.35" r="3.35" transform="translate(87.04 91.75)" fill="url(#linear-gradient-3)"/>
    <circle id="Oval-5" data-name="Oval" cx="3.35" cy="3.35" r="3.35" transform="translate(123.14 91.75)" fill="url(#linear-gradient-3)"/>
    <path id="Path-6" data-name="Path" d="M36.23,8.633a33.45,33.45,0,0,0-34-.07L0,5.273A37.44,37.44,0,0,1,38.2,5.2Z" transform="translate(89.28 117.727)" fill="url(#linear-gradient-3)"/>
    <rect id="Rectangle" width="9.16" height="44.43" transform="translate(134.061 135.266) rotate(-45)" fill="url(#linear-gradient-3)"/>
    <path id="Shape" d="M44,88A44.012,44.012,0,0,1,26.873,3.458,44.011,44.011,0,0,1,61.127,84.542,43.723,43.723,0,0,1,44,88Zm.01-80.772h0A36.77,36.77,0,1,0,44,80.77h.01a36.77,36.77,0,0,0,0-73.541Z" transform="translate(64.59 59.7)" fill="url(#linear-gradient-7)"/>
  </g>
</svg>
