<?xml version="1.0" encoding="utf-8"?>
<!-- Generator: Adobe Illustrator 16.0.0, SVG Export Plug-In . SVG Version: 6.00 Build 0)  -->
<!DOCTYPE svg PUBLIC "-//W3C//DTD SVG 1.1//EN" "http://www.w3.org/Graphics/SVG/1.1/DTD/svg11.dtd">
<svg version="1.1" id="_x31_" xmlns="http://www.w3.org/2000/svg" xmlns:xlink="http://www.w3.org/1999/xlink" x="0px" y="0px"
	 width="512px" height="512px" viewBox="0 0 512 512" enable-background="new 0 0 512 512" xml:space="preserve">
<g>
	<path fill-rule="evenodd" clip-rule="evenodd" d="M442.306,296.084c0,53.404,0.015,106.809-0.008,160.215
		c-0.007,20.229-8.798,35.391-27.286,43.748c-6.243,2.82-13.727,3.932-20.663,4.004c-36.455,0.387-72.916,0.17-109.373,0.199
		c-30.711,0.025-61.42,0.158-92.131,0.143c-26.775-0.014-53.561,0.25-80.321-0.418c-15.419-0.385-26.996-8.764-35.449-21.352
		c-4.993-7.436-7.315-15.68-7.294-24.801c0.136-57.643,0.074-115.285,0.055-172.928c-0.013-39.639-0.074-79.279-0.09-118.919
		c-0.014-37.065-0.148-74.131,0.066-111.194c0.116-20.04,9.383-34.873,27.773-42.952c6.178-2.713,13.457-4.039,20.242-4.068
		c65.059-0.295,130.119-0.154,195.18-0.192c14.941-0.009,27.067,5.553,37.148,16.719c7.79,8.627,16.583,16.34,24.843,24.55
		c17.803,17.691,35.622,35.365,53.282,53.197c8.842,8.93,13.979,19.662,13.984,32.465c0.015,30.561-0.027,61.123-0.036,91.684
		c-0.009,23.3-0.002,46.6-0.002,69.901C442.253,296.084,442.279,296.084,442.306,296.084z M287.04,38.979
		c-1.609-0.133-2.643-0.292-3.676-0.292c-54.762-0.043-109.525-0.119-164.289-0.069c-12.102,0.011-18.221,6.488-18.223,18.687
		c-0.008,37.362-0.002,74.725-0.002,112.087c0,45.078,0.021,90.156-0.006,135.234c-0.031,50.068,0.127,100.141-0.341,150.207
		c-0.101,10.869,6.771,18.813,18.617,18.617c34.331-0.566,68.679-0.285,103.02-0.297c57.032-0.02,114.064,0.006,171.098-0.018
		c12.271-0.004,17.947-5.797,17.963-18.137c0.056-46.891,0.132-93.783,0.158-140.676c0.027-48.861,0.008-97.721-0.003-146.582
		c-0.001-1.593-0.142-3.188-0.232-5.088c-1.985,0-3.477,0-4.968,0.001c-30.254,0.032-60.511,0.089-90.766,0.065
		c-3.45-0.002-7.051,0.099-10.324-0.794c-11.926-3.252-18.087-11.861-18.1-24.949c-0.028-30.711,0.043-61.421,0.073-92.133
		C287.041,43.047,287.04,41.251,287.04,38.979z M318.42,38.626c0,31.91,0,62.373,0,93.026c30.748,0,61.209,0,93.143,0
		c-2.587-3.502-4.287-6.457-6.597-8.817c-7.927-8.095-16.095-15.953-24.119-23.953c-18.614-18.561-37.179-37.176-55.838-55.693
		C323.39,41.583,321.215,40.535,318.42,38.626z"/>
	<path fill-rule="evenodd" clip-rule="evenodd" d="M240.517,326.016c0-30.252-0.004-60.504,0.002-90.756
		c0.002-7.776,2.2-10.008,9.885-10.088c3.932-0.042,7.867-0.153,11.798-0.078c6.189,0.119,9.142,3.087,9.154,9.254
		c0.039,18.756-0.001,37.512,0.02,56.266c0.043,37.816,0.111,75.633,0.15,113.449c0.006,4.688-0.052,9.377-0.171,14.064
		c-0.138,5.248-2.828,8.207-8.054,8.508c-4.675,0.268-9.375,0.279-14.06,0.191c-5.924-0.109-8.709-3.07-8.714-9.148
		C240.505,387.123,240.519,356.57,240.517,326.016z"/>
	<path fill-rule="evenodd" clip-rule="evenodd" d="M302.292,356.396c0-19.357-0.013-38.717,0.006-58.076
		c0.006-8.631,2.515-11.162,10.975-11.205c3.63-0.02,7.266-0.176,10.892-0.059c6.296,0.205,9.216,2.963,9.256,9.205
		c0.121,18.438,0.001,36.879,0.083,55.316c0.075,16.938,0.339,33.871,0.414,50.807c0.023,5.283-0.219,10.574-0.489,15.854
		c-0.291,5.629-2.953,8.234-8.562,8.434c-4.383,0.158-8.771,0.201-13.158,0.172c-6.03-0.039-9.193-3.084-9.373-9.199
		c-0.11-3.771,0.219-7.553,0.225-11.33c0.029-16.639,0.012-33.279,0.012-49.918C302.479,356.396,302.386,356.396,302.292,356.396z"
		/>
	<path fill-rule="evenodd" clip-rule="evenodd" d="M209.479,372.383c0,14.502,0.023,29.004-0.01,43.506
		c-0.018,8.172-2.698,10.771-10.916,10.814c-3.475,0.018-6.951,0.16-10.426,0.146c-6.779-0.029-9.73-2.74-9.959-9.492
		c-0.123-3.605,0.404-7.23,0.379-10.846c-0.087-12.689-0.412-25.377-0.408-38.064c0.005-13.443,0.245-26.889,0.456-40.33
		c0.114-7.262,2.993-10.096,10.228-10.205c3.324-0.049,6.648,0.07,9.974,0.098c8.259,0.068,10.931,2.66,10.952,10.85
		c0.039,14.508,0.012,29.016,0.012,43.523C209.667,372.383,209.572,372.383,209.479,372.383z"/>
</g>
</svg>
