<?xml version="1.0" encoding="utf-8"?>
<!-- Generator: Adobe Illustrator 16.0.0, SVG Export Plug-In . SVG Version: 6.00 Build 0)  -->
<!DOCTYPE svg PUBLIC "-//W3C//DTD SVG 1.1//EN" "http://www.w3.org/Graphics/SVG/1.1/DTD/svg11.dtd">
<svg version="1.1" id="Outline" xmlns="http://www.w3.org/2000/svg" xmlns:xlink="http://www.w3.org/1999/xlink" x="0px" y="0px"
	 width="512px" height="512px" viewBox="0 0 512 512" enable-background="new 0 0 512 512" xml:space="preserve">
<g>
	<path fill-rule="evenodd" clip-rule="evenodd" d="M201.764,69.075c-4.089-36.124,22.334-62.612,54.667-62.818
		c31.133-0.198,58.509,27.959,54.035,62.798c1.707,0,3.354-0.003,5.001,0c28.234,0.042,56.471-0.123,84.702,0.195
		c22.435,0.252,43.431,21.228,43.537,43.737c0.269,56.315,0.181,112.632,0.201,168.948c0.022,59.063,0.057,118.127-0.024,177.189
		c-0.032,24.24-15.004,43.178-38.144,47.259c-8.621,1.521-17.641,1.009-26.48,1.018c-52.346,0.048-104.693-0.043-157.04-0.048
		c-34.796-0.004-69.593-0.075-104.389,0.146c-16.547,0.104-30.021-5.891-40.186-18.898c-5.858-7.496-9.35-16.037-9.359-25.729
		c-0.055-56.315-0.103-112.632-0.122-168.948c-0.02-58.759,0.025-117.518-0.019-176.275c-0.017-20.471,8.923-35.504,27.4-44.235
		c5.22-2.465,11.372-4.006,17.128-4.099c27.158-0.436,54.329-0.222,81.495-0.24C196.58,69.073,198.994,69.075,201.764,69.075z
		 M162.134,100.368c-15.879,0-31.108-0.04-46.341,0.013c-9.71,0.034-16.256,6.679-16.311,16.437
		c-0.054,9.461-0.1,18.923-0.096,28.385c0.021,56.16,0.08,112.321,0.083,168.481c0.001,48.225-0.085,96.449-0.019,144.674
		c0.004,2.951,0.48,6.145,1.678,8.802c2.959,6.571,8.502,8.854,15.611,8.841c59.059-0.105,118.12-0.05,177.182-0.063
		c34.033-0.008,68.064-0.02,102.098-0.099c10.411-0.024,16.52-6.21,16.571-16.513c0.049-10.072,0.098-20.145,0.094-30.215
		c-0.021-55.703-0.08-111.406-0.083-167.109c-0.001-48.224,0.067-96.449,0.08-144.673c0.002-10.693-6.364-17.039-17.082-17.047
		c-13.736-0.01-27.471,0.046-41.207,0.096c-1.332,0.004-2.663,0.155-4.498,0.271c0,6.219,0.151,12.147-0.036,18.065
		c-0.27,8.485-4.766,12.863-13.274,12.867c-53.72,0.02-107.44-0.003-161.161-0.064c-9.016-0.01-13.073-4.1-13.266-13.197
		C162.035,112.53,162.134,106.738,162.134,100.368z M257.083,37.785c-13.244-0.411-24.062,9.669-24.591,22.917
		c-0.494,12.34,10.215,23.572,22.768,23.881c12.658,0.313,23.834-10.148,24.441-22.877
		C280.285,49.418,269.653,38.175,257.083,37.785z"/>
	<path fill-rule="evenodd" clip-rule="evenodd" d="M286.918,335.063c16.916,0,33.833-0.008,50.75,0.004
		c10.273,0.007,12.245,2.002,12.274,12.355c0.007,2.896,0.021,5.792-0.032,8.688c-0.142,7.542-3.059,10.508-10.52,10.547
		c-16.155,0.08-32.314,0.12-48.473,0.14c-18.289,0.023-36.58,0.015-54.87,0.002c-8.451-0.005-11.201-2.742-11.24-11.124
		c-0.018-3.811-0.099-7.623-0.018-11.432c0.125-5.891,2.762-8.83,8.632-8.876c17.831-0.139,35.663-0.05,53.496-0.05
		C286.918,335.232,286.918,335.148,286.918,335.063z"/>
	<path fill-rule="evenodd" clip-rule="evenodd" d="M188.94,235.872c7.614-8.161,14.763-16.078,22.194-23.717
		c7.23-7.434,14.732-14.604,22.151-21.853c4.208-4.11,6.097-4.104,10.352,0.073c3.154,3.099,6.205,6.304,9.282,9.479
		c4.189,4.321,4.222,6.014-0.061,10.274c-14.707,14.631-29.452,29.222-44.181,43.832c-5.305,5.262-10.495,10.644-15.928,15.77
		c-4.007,3.78-5.802,3.665-9.658-0.196c-11.318-11.33-22.603-22.696-33.85-34.098c-3.459-3.508-3.427-6.177,0.086-9.83
		c3.172-3.297,6.467-6.478,9.761-9.655c4.073-3.931,6.059-3.96,10.016-0.03C175.27,222.047,181.362,228.242,188.94,235.872z"/>
	<path fill-rule="evenodd" clip-rule="evenodd" d="M235.471,272.525c10.136-10.373,19.754-20.301,29.526-30.076
		c0.891-0.89,2.76-1.112,4.176-1.115c23.782-0.066,47.566-0.076,71.349-0.026c6.469,0.014,9.145,2.656,9.357,9.134
		c0.146,4.417,0.189,8.848,0.012,13.261c-0.247,6.114-3.064,8.81-9.228,8.818c-28.052,0.039-56.103,0.009-84.154,0.004
		C249.657,272.523,242.805,272.525,235.471,272.525z"/>
	<path fill-rule="evenodd" clip-rule="evenodd" d="M177.718,374.277c-13.478-0.004-23.434-10.412-23.412-24.475
		c0.021-12.097,10.985-22.43,23.67-22.303c12.521,0.124,23.172,10.381,23.185,22.331
		C201.174,363.885,191.205,374.281,177.718,374.277z"/>
</g>
</svg>
